#!OML:ASF F:\VICON\USERDATA\INSTALL\Justin_Nancy\Justin_Nancy.ASF
:FULLY-SPECIFIED
:DEGREES
50
root 1.06894 16.9985 -15.53 -0.416996 -7.07876 -0.522851
lowerback 4.0142 2.51688 0.204454
upperback -0.475622 3.41684 1.8362
thorax -2.83803 1.71408 1.55243
lowerneck -15.1554 -3.25702 -8.93666
upperneck 23.6692 -3.3578 4.33394
head 10.3023 -1.84757 2.59308
rclavicle -1.93039e-015 -2.78299e-015
rhumerus -24.2667 -8.74459 -78.4305
rradius 39.6353
rwrist 0.75922
rhand -16.1484 13.0046
rfingers 7.12502
rthumb 10.057 -16.7351
lclavicle -1.93039e-015 -2.78299e-015
lhumerus -45.5917 16.0177 76.228
lradius 16.8795
lwrist -20.3204
lhand -9.85875 25.7853
lfingers 7.12502
lthumb 16.1197 55.1349
rfemur 12.7471 4.94235 23.7246
rtibia 41.7359
rfoot 16.0147 3.14311
rtoes 3.78742
lfemur -31.2485 2.7369 -21.2679
ltibia 33.0378
lfoot -1.71879 -0.779851
ltoes -3.93824
51
root 1.07617 17.0176 -15.2652 -0.675721 -7.14328 -0.354884
lowerback 4.26623 2.48943 0.0886992
upperback -0.407828 3.37387 1.75998
thorax -2.91052 1.69346 1.53172
lowerneck -15.6347 -3.24354 -9.03661
upperneck 23.9882 -3.31976 4.51342
head 10.5125 -1.81745 2.68074
rclavicle 3.58224e-014 1.55052e-014
rhumerus -24.4054 -9.18802 -78.4635
rradius 38.9551
rwrist 1.36563
rhand -16.3643 13.8067
rfingers 7.12502
rthumb 9.84869 -15.943
lclavicle 3.58224e-014 1.55052e-014
lhumerus -45.7996 16.5575 75.5701
lradius 16.9124
lwrist -21.1965
lhand -10.4064 24.3702
lfingers 7.12502
lthumb 15.5923 53.7617
rfemur 11.0563 5.0699 23.4713
rtibia 45.3451
rfoot 17.8687 2.90575
rtoes 9.44396
lfemur -30.5687 3.40143 -21.7295
ltibia 33.9348
lfoot -2.43158 -1.83202
ltoes -1.64329
52
root 1.08488 17.0349 -15.0091 -0.819216 -7.18155 -0.190316
lowerback 4.54268 2.43308 -0.0607009
upperback -0.521406 3.29486 1.73574
thorax -3.18785 1.65695 1.58048
lowerneck -15.4801 -3.16365 -9.09207
upperneck 24.0659 -3.19415 4.45723
head 10.5018 -1.77476 2.68935
rclavicle 4.14808e-015 1.19271e-015
rhumerus -24.8043 -9.39579 -78.4611
rradius 38.4379
rwrist 1.83617
rhand -16.3669 14.5831
rfingers 7.12502
rthumb 9.84622 -15.1667
lclavicle 4.14808e-015 1.19271e-015
lhumerus -46.2036 16.6791 75.2898
lradius 17.115
lwrist -21.1184
lhand -10.0008 24.625
lfingers 7.12502
lthumb 15.9828 53.9857
rfemur 9.08751 5.08623 23.2106
rtibia 48.9662
rfoot 18.2508 2.55108
rtoes 10.2042
lfemur -29.9279 3.83347 -22.1251
ltibia 34.7286
lfoot -3.34368 -2.46627
ltoes 2.00756
53
root 1.09244 17.0478 -14.7547 -1.01613 -7.18792 0.272644
lowerback 4.68331 2.40863 -0.469957
upperback -0.513249 3.23546 1.59167
thorax -3.27102 1.63344 1.65923
lowerneck -15.4219 -3.12731 -9.192
upperneck 24.097 -3.14783 4.55302
head 10.5016 -1.75269 2.7481
rclavicle -1.77508e-014 3.97569e-016
rhumerus -24.9674 -9.64072 -78.5248
rradius 37.9316
rwrist 2.23851
rhand -16.1842 14.4714
rfingers 7.12502
rthumb 10.0224 -15.2699
lclavicle -1.77508e-014 3.97569e-016
lhumerus -46.3758 16.2937 75.5053
lradius 17.6997
lwrist -20.08
lhand -9.20168 25.6702
lfingers 7.12502
lthumb 16.7523 54.9674
rfemur 7.13139 4.90754 22.5739
rtibia 52.5597
rfoot 17.3824 2.21396
rtoes 9.84343
lfemur -29.1069 4.02505 -22.8045
ltibia 35.363
lfoot -4.20134 -2.40718
ltoes 5.72239
54
root 1.09747 17.0628 -14.5039 -1.24209 -7.23139 0.864165
lowerback 4.74568 2.39151 -1.06959
upperback -0.383973 3.17278 1.4622
thorax -3.19587 1.61053 1.8663
lowerneck -15.4553 -3.11977 -9.34387
upperneck 24.0532 -3.09345 4.56018
head 10.4914 -1.73982 2.78288
rclavicle -4.53245e-015 -9.93923e-015
rhumerus -24.9017 -9.73705 -78.5696
rradius 37.4687
rwrist 2.38116
rhand -15.5979 13.6817
rfingers 7.12502
rthumb 10.5881 -16.0315
lclavicle -4.53245e-015 -9.93923e-015
lhumerus -46.2356 15.9993 75.8355
lradius 18.1513
lwrist -18.8907
lhand -8.67371 26.8084
lfingers 7.12502
lthumb 17.2605 56.0619
rfemur 5.19018 4.68823 21.8043
rtibia 56.0238
rfoot 15.7238 1.65378
rtoes 9.37779
lfemur -28.1787 4.07549 -23.5517
ltibia 35.8064
lfoot -5.09988 -2.16297
ltoes 4.24927
55
root 1.10125 17.0753 -14.2584 -1.40423 -7.11749 1.61383
lowerback 4.86333 2.27857 -1.88586
upperback -0.349506 2.96901 1.31435
thorax -3.25193 1.52198 2.18275
lowerneck -15.5627 -3.04714 -9.36768
upperneck 24.1705 -2.93147 4.39407
head 10.5411 -1.68833 2.75033
rclavicle 5.00526e-014 -1.78906e-014
rhumerus -24.904 -9.74818 -78.6716
rradius 36.7963
rwrist 3.18299
rhand -15.3233 13.664
rfingers 7.12502
rthumb 10.8529 -16.0355
lclavicle 5.00526e-014 -1.78906e-014
lhumerus -46.0398 15.9999 75.9978
lradius 18.317
lwrist -18.1079
lhand -8.64668 27.6166
lfingers 7.12502
lthumb 17.2865 56.8678
rfemur 3.14254 4.3759 20.8906
rtibia 59.2367
rfoot 13.7214 0.723258
rtoes 9.04734
lfemur -27.2659 3.84448 -24.4476
ltibia 36.0422
lfoot -5.8971 -2.04964
ltoes 4.09084
